<svg width="24" height="24" viewBox="0 0 24 24" fill="none" xmlns="http://www.w3.org/2000/svg">
<rect width="24" height="24" rx="4" fill="white"/>
<path d="M14.5563 12.5625C14.9781 12.5625 15.3492 12.3319 15.5403 11.9831L17.5533 8.3325C17.7614 7.96125 17.4915 7.5 17.0642 7.5H8.74225L8.21369 6.375H6.375V7.5H7.49958L9.52383 11.7694L8.76474 13.1419C8.35427 13.8956 8.89406 14.8125 9.74875 14.8125H16.4962V13.6875H9.74875L10.3673 12.5625H14.5563ZM9.27642 8.625H16.1083L14.5563 11.4375H10.6091L9.27642 8.625ZM9.74875 15.375C9.13023 15.375 8.62979 15.8813 8.62979 16.5C8.62979 17.1188 9.13023 17.625 9.74875 17.625C10.3673 17.625 10.8733 17.1188 10.8733 16.5C10.8733 15.8813 10.3673 15.375 9.74875 15.375ZM15.3717 15.375C14.7531 15.375 14.2527 15.8813 14.2527 16.5C14.2527 17.1188 14.7531 17.625 15.3717 17.625C15.9902 17.625 16.4962 17.1188 16.4962 16.5C16.4962 15.8813 15.9902 15.375 15.3717 15.375Z" fill="#6A23C6"/>
<path fill-rule="evenodd" clip-rule="evenodd" d="M4.96875 4.6875C4.81342 4.6875 4.6875 4.81342 4.6875 4.96875V12.2813H3V4.96875C3 3.88144 3.88144 3 4.96875 3H12.2813V4.6875H4.96875Z" fill="#6A23C6"/>
<path fill-rule="evenodd" clip-rule="evenodd" d="M19.0313 19.3125C19.1866 19.3125 19.3125 19.1866 19.3125 19.0313L19.3125 11.7188H21V19.0313C21 20.1186 20.1186 21 19.0313 21L11.7188 21V19.3125L19.0313 19.3125Z" fill="#6A23C6"/>
</svg>
